<?xml version="1.0" encoding="UTF-8"?><svg id="Capa_1" xmlns="http://www.w3.org/2000/svg" width="276.59" height="276.48" viewBox="0 0 276.59 276.48"><defs><style>.cls-1{fill:#c6c6c6;}</style></defs><path class="cls-1" d="m160.83,140.4c-5.25,0-9.44.26-13.57-.07-4.93-.4-6.91,1.26-6.69,6.44.35,8.32.06,16.66.11,24.99.01,2.71-.51,5.22-1.56,7.75-10.89,26.5-8.31,51.75,7.26,75.73,3.63,5.58,3.36,6.22-3.29,6.87-54.47,5.29-108.64-26.07-131.1-75.88C-17.44,120.91,8.99,45.87,72.75,13.69,122.11-11.22,183.31-1.45,222.65,37.39c23.65,23.35,36.72,51.4,39.41,84.54.64,7.89.09,15.61-.42,23.41-.23,3.62-1.26,4.86-4.82,2.38-23.99-16.7-49.63-19.68-76.79-8.79-6.64,2.67-13.54.83-19.2,1.46Zm-66.19-18.4c7.17,0,14.34-.16,21.5.06,4.08.13,5.66-1.3,5.57-5.47-.2-9.83-.26-19.67.03-29.49.14-4.8-1.84-6.41-6.35-6.79-9.84-.82-19.44-3.08-28.62-6.7-3.93-1.55-5.69-.5-7.29,3.08-5.82,13.04-9.71,26.56-11.24,40.78-.36,3.39.62,4.58,3.91,4.54,7.5-.09,15-.03,22.5-.02Zm.18,18.39c-7.49,0-14.97,0-22.46,0-2.56,0-4.65.21-4.22,3.78,1.78,14.81,5.37,29.07,11.99,42.52,1.29,2.62,2.73,3.4,5.47,2.34,10.14-3.92,20.73-6.07,31.48-7.44,3.18-.4,4.62-1.83,4.58-5.19-.13-10.31-.15-20.63.02-30.94.07-4.02-1.68-5.2-5.41-5.11-7.15.17-14.3.05-21.46.04Zm72.18-18.41c7.16,0,14.33-.13,21.48.05,3.85.1,5.55-1.3,5.22-5.24-1.21-14.64-5.72-28.33-11.71-41.62-.94-2.09-2.4-3.03-4.81-2.1-10.31,4.01-21.02,6.34-31.99,7.58-3.17.36-4.62,1.95-4.58,5.28.12,10.32.15,20.65-.01,30.97-.06,3.99,1.64,5.23,5.41,5.13,6.99-.18,13.99-.05,20.98-.06Zm-133.15.02c3.16,0,6.33-.17,9.47.04,4.12.27,5.97-1.23,6.28-5.58,1.03-14.21,4.68-27.83,10.05-41,4.93-12.1,4.84-11.95-5.8-19.49-3.26-2.31-5.09-1.69-7.43,1.05-14.15,16.61-23.14,35.58-26.52,57.15-1.22,7.8-1.12,7.81,6.95,7.82,2.33,0,4.66,0,6.98,0Zm-14.45,21.96c2.47,20.99,10.29,40,23.48,56.74,6.56,8.32,6.66,8.24,15.53,2.28,1.24-.84,2.46-1.71,3.74-2.49,1.9-1.16,2.27-2.59,1.32-4.63-7.55-16.28-12.71-33.24-14.15-51.21-.22-2.7-1.54-4.26-4.48-4.24-7.49.05-14.98.02-22.47.01-2.25,0-3.52.87-2.98,3.54Zm207.9-21.96c3.19,0,5.68,0,8.18,0,7.19-.02,7.87-.74,6.79-7.71-2.97-19.33-10.66-36.64-22.52-52.12-6.67-8.71-6.76-8.64-15.81-2.76-.84.54-1.66,1.12-2.56,1.55-3.25,1.55-3.57,3.62-2.05,6.86,6.11,13.02,10.05,26.72,12.69,40.87.8,4.26-1.38,9.96,2.72,12.56,3.65,2.31,8.78.42,12.55.75ZM121.62,44.52s.03,0,.04,0c0-4.49.02-8.99-.02-13.48,0-1.12.42-2.61-.7-3.23-1.43-.8-2.45.64-3.43,1.41-8.68,6.8-16.43,14.54-23.33,23.15-1.88,2.34-1.81,3.64,1.25,4.57,7.18,2.19,14.45,3.89,21.89,4.9,3.07.41,4.33-.85,4.31-3.83-.04-4.49-.01-8.99-.01-13.48Zm19.04-.34s.03,0,.04,0c0,4.66-.01,9.33,0,13.99,0,2.27.67,4.03,3.44,3.71,7.63-.89,15.1-2.56,22.41-4.92,2.61-.84,3.05-2.36,1.41-4.49-6.96-9.02-14.99-16.94-24.09-23.8-2.17-1.64-3.24-1.38-3.22,1.52.03,4.66,0,9.33,0,13.99Zm-19.08,173.85c0-4.65.02-9.3,0-13.95-.01-2.03-.61-3.8-3.1-3.52-7.94.88-15.76,2.38-23.25,5.28-2.27.88-2,2.26-.82,3.89,6.59,9.08,14.65,16.7,23.5,23.52,2.28,1.76,3.66,1.3,3.68-1.76.02-4.48,0-8.97,0-13.46ZM92.22,26.22c-8.34,2.57-16.04,6.32-23.17,11.18-1.38.94-4.16,1.65-3.18,3.76,1.27,2.73,4.47,3.78,7.03,5.25,1.67.96,2.83-.11,3.73-1.42,4.62-6.69,10.08-12.66,15.58-18.77Zm77.9.07c4.48,5.07,9.01,9.93,13.06,15.22,4.69,6.13,5.84,6.21,11.75,1.43,1.88-1.52,2.3-2.61.06-4.16-7.68-5.32-15.78-9.8-24.87-12.48Zm-79.39,208.63c-4.99-6.08-9.93-12.19-14.99-18.2-1.43-1.7-3.11-.58-4.46.32-2.02,1.35-4.45,2.29-5.49,4.73-.11.26.35.94.71,1.2,7.36,5.26,15.07,9.87,24.23,11.95Z"/><path class="cls-1" d="m145.38,210.76c.05-36.53,29.33-65.7,65.84-65.6,36.11.09,65.64,29.83,65.36,66.36-.28,36.61-30.99,65.45-66.15,64.95-36.51-.53-65.11-29.01-65.05-65.71Zm52.57.78c-.54.67-1.17,1.64-1.97,2.44-4.61,4.58-9.43,8.95-13.85,13.69-9.25,9.92-9.46,6.5,0,16.52,2.83,3,4.73,2.47,7.31-.24,5.86-6.15,12.05-11.98,17.94-18.1,2.38-2.47,4.26-2.61,6.64-.13,4.5,4.68,9.05,9.32,13.73,13.82,9.4,9.04,6.12,9.72,16.41-.24,2.68-2.59,2.44-4.6-.14-7.09-5.87-5.67-11.41-11.69-17.4-17.23-3.27-3.02-3.83-5.09-.18-8.28,4.76-4.15,9.02-8.87,13.5-13.35,7.71-7.7,7.52-7.52.14-15.31-3.5-3.7-5.95-3.27-8.8.31-5.1,6.42-11.77,11.29-17.26,17.33-2.31,2.54-4.17,2.6-6.58.06-4.58-4.84-9.39-9.46-14.1-14.17-7.85-7.85-7.71-7.72-15.7.15-3.24,3.19-2.8,5.28.25,8.16,6.06,5.71,11.85,11.71,17.72,17.62,1.02,1.03,2.39,1.91,2.33,4.01Z"/></svg>